<?xml version="1.0" encoding="UTF-8" standalone="no"?>
<!-- Created with Inkscape (http://www.inkscape.org/) -->

<svg
   xmlns:dc="http://purl.org/dc/elements/1.1/"
   xmlns:cc="http://creativecommons.org/ns#"
   xmlns:rdf="http://www.w3.org/1999/02/22-rdf-syntax-ns#"
   xmlns:svg="http://www.w3.org/2000/svg"
   xmlns="http://www.w3.org/2000/svg"
   xmlns:sodipodi="http://sodipodi.sourceforge.net/DTD/sodipodi-0.dtd"
   xmlns:inkscape="http://www.inkscape.org/namespaces/inkscape"
   id="svg3355"
   version="1.1"
   inkscape:version="0.91 r13725"
   xml:space="preserve"
   width="204.5063"
   height="137.82407"
   viewBox="0 0 204.5063 137.82407"
   sodipodi:docname="maverick-arch.svg"><metadata
     id="metadata3361"><rdf:RDF><cc:Work
         rdf:about=""><dc:format>image/svg+xml</dc:format><dc:type
           rdf:resource="http://purl.org/dc/dcmitype/StillImage" /><dc:title></dc:title></cc:Work></rdf:RDF></metadata><defs
     id="defs3359" /><sodipodi:namedview
     pagecolor="#ffffff"
     bordercolor="#666666"
     borderopacity="1"
     objecttolerance="10"
     gridtolerance="10"
     guidetolerance="10"
     inkscape:pageopacity="0"
     inkscape:pageshadow="2"
     inkscape:window-width="1920"
     inkscape:window-height="1056"
     id="namedview3357"
     showgrid="false"
     inkscape:zoom="6.6679211"
     inkscape:cx="102.25315"
     inkscape:cy="68.912033"
     inkscape:window-x="0"
     inkscape:window-y="24"
     inkscape:window-maximized="1"
     inkscape:current-layer="g3363" /><g
     id="g3363"
     inkscape:groupmode="layer"
     inkscape:label="maverick-arch"
     transform="matrix(1.25,0,0,-1.25,0,137.82407)"><g
       transform="matrix(1,0,0,-1,0,110.25925)"
       id="g3367"><path
         inkscape:connector-curvature="0"
         id="path3369"
         style="fill:none;stroke:#000000;stroke-width:0.23999999;stroke-linecap:butt;stroke-linejoin:miter;stroke-miterlimit:4;stroke-dasharray:none;stroke-opacity:1"
         d="m 152.48,91.734 0,4.161" /></g><g
       transform="matrix(1,0,0,-1,0,110.25925)"
       id="g3371"><path
         inkscape:connector-curvature="0"
         id="path3373"
         style="fill:none;stroke:#000000;stroke-width:0.260259;stroke-linecap:square;stroke-linejoin:miter;stroke-miterlimit:4;stroke-dasharray:none;stroke-opacity:1"
         d="m 105.535,61.25 c 0,3.016 -2.441,5.457 -5.457,5.457 -3.012,0 -5.457,-2.441 -5.457,-5.457 0,-3.016 2.445,-5.457 5.457,-5.457 3.016,0 5.457,2.441 5.457,5.457 z" /></g><text
       id="text3375"
       style="font-variant:normal;font-weight:normal;font-size:4.19367123px;font-family:Verdana;-inkscape-font-specification:Verdana;writing-mode:lr-tb;fill:#000000;fill-opacity:1;fill-rule:nonzero;stroke:none"
       transform="scale(1,-1)"
       x="87.591972"
       y="-63.528439"><tspan
         id="tspan3377"
         sodipodi:role="line"
         y="-63.528439"
         x="87.591972 90.120758 91.907265 94.448624 96.629333 99.124573 101.31786 103.49857 104.63506 107.28545">Processing</tspan><tspan
         id="tspan3379"
         sodipodi:role="line"
         y="-58.28635"
         x="93.407417 96.472992 99.12339 100.27245 101.92477">Units</tspan></text>
<g
       transform="matrix(1,0,0,-1,0,110.25925)"
       id="g3381"><path
         inkscape:connector-curvature="0"
         id="path3383"
         style="fill:none;stroke:#000000;stroke-width:0.23999999;stroke-linecap:butt;stroke-linejoin:miter;stroke-miterlimit:4;stroke-dasharray:none;stroke-opacity:1"
         d="m 138.078,68.605 0,26.747" /></g><g
       transform="matrix(0,1,1,0,0,110.25925)"
       id="g3385"><path
         inkscape:connector-curvature="0"
         id="path3387"
         style="fill:#000000;fill-opacity:1;fill-rule:evenodd;stroke:#000000;stroke-width:0.09;stroke-linecap:butt;stroke-linejoin:round;stroke-miterlimit:4;stroke-dasharray:none;stroke-opacity:1"
         d="m -94.098,138.656 -1.574,-0.578 1.574,-0.578 c -0.25,0.34 -0.25,0.809 0,1.156 z" /></g><g
       transform="matrix(1,0,0,-1,0,110.25925)"
       id="g3389"><path
         inkscape:connector-curvature="0"
         id="path3391"
         style="fill:none;stroke:#000000;stroke-width:0.23999999;stroke-linecap:butt;stroke-linejoin:miter;stroke-miterlimit:4;stroke-dasharray:none;stroke-opacity:1"
         d="m 133.766,104.906 -121.887,0 0,-41.683" /></g><g
       transform="matrix(0,-1,-1,0,0,110.25925)"
       id="g3393"><path
         inkscape:connector-curvature="0"
         id="path3395"
         style="fill:#000000;fill-opacity:1;fill-rule:evenodd;stroke:#000000;stroke-width:0.09;stroke-linecap:butt;stroke-linejoin:round;stroke-miterlimit:4;stroke-dasharray:none;stroke-opacity:1"
         d="m 64.477,-11.297 -1.575,-0.578 1.575,-0.578 c -0.25,0.34 -0.25,0.808 0,1.156 z" /></g><g
       transform="matrix(1,0,0,-1,0,110.25925)"
       id="g3397"><path
         inkscape:connector-curvature="0"
         id="path3399"
         style="fill:none;stroke:#000000;stroke-width:0.23999999;stroke-linecap:butt;stroke-linejoin:miter;stroke-miterlimit:4;stroke-dasharray:none;stroke-opacity:1"
         d="m 148.945,50.188 0,4.16" /></g><g
       transform="matrix(1,0,0,-1,0,110.25925)"
       id="g3401"><path
         inkscape:connector-curvature="0"
         id="path3403"
         style="fill:#ffffff;fill-opacity:1;fill-rule:nonzero;stroke:#000000;stroke-width:0.40000001;stroke-linecap:square;stroke-linejoin:miter;stroke-miterlimit:4;stroke-dasharray:none;stroke-opacity:1"
         d="m 159.344,87.941 c 0,2.098 -2.836,3.797 -6.328,3.797 -3.493,0 -6.325,-1.699 -6.325,-3.797 0,-2.093 2.832,-3.796 6.325,-3.796 3.492,0 6.328,1.703 6.328,3.796 z" /></g><g
       transform="matrix(1,0,0,-1,0,110.25925)"
       id="g3405"><path
         inkscape:connector-curvature="0"
         id="path3407"
         style="fill:#ffffff;fill-opacity:1;fill-rule:nonzero;stroke:#000000;stroke-width:0.40000001;stroke-linecap:square;stroke-linejoin:miter;stroke-miterlimit:4;stroke-dasharray:none;stroke-opacity:1"
         d="m 146.688,77.18 12.652,0 0,11.14 c 0,0 -0.508,3.254 -6.551,3.407 -5.598,0.136 -6.101,-3.407 -6.101,-3.407 l 0,-11.14 z" /></g><g
       transform="matrix(1,0,0,-1,0,110.25925)"
       id="g3409"><path
         inkscape:connector-curvature="0"
         id="path3411"
         style="fill:#ffffff;fill-opacity:1;fill-rule:nonzero;stroke:#000000;stroke-width:0.40000001;stroke-linecap:square;stroke-linejoin:miter;stroke-miterlimit:4;stroke-dasharray:none;stroke-opacity:1"
         d="m 159.34,76.934 c 0,2.097 -2.832,3.796 -6.328,3.796 -3.492,0 -6.324,-1.699 -6.324,-3.796 0,-2.094 2.832,-3.793 6.324,-3.793 3.496,0 6.328,1.699 6.328,3.793 z" /></g><text
       id="text3413"
       style="font-variant:normal;font-weight:normal;font-size:3.5px;font-family:Verdana;-inkscape-font-specification:Verdana;writing-mode:lr-tb;fill:#000000;fill-opacity:1;fill-rule:nonzero;stroke:none"
       transform="scale(1,-1)"
       x="146.97279"
       y="-24.405289"><tspan
         id="tspan3415"
         sodipodi:role="line"
         y="-24.405289"
         x="146.97279 149.24429 150.9453 152.20529 153.03479 155.03679 157.12979">Actions</tspan></text>
<g
       transform="matrix(1,0,0,-1,0,110.25925)"
       id="g3417"><path
         inkscape:connector-curvature="0"
         id="path3419"
         style="fill:#ffffff;fill-opacity:1;fill-rule:nonzero;stroke:#000000;stroke-width:0.40000001;stroke-linecap:square;stroke-linejoin:miter;stroke-miterlimit:4;stroke-dasharray:none;stroke-opacity:1"
         d="m 155.453,46.262 c 0,2.097 -2.832,3.797 -6.328,3.797 -3.492,0 -6.324,-1.7 -6.324,-3.797 0,-2.098 2.832,-3.797 6.324,-3.797 3.496,0 6.328,1.699 6.328,3.797 z" /></g><g
       transform="matrix(1,0,0,-1,0,110.25925)"
       id="g3421"><path
         inkscape:connector-curvature="0"
         id="path3423"
         style="fill:#ffffff;fill-opacity:1;fill-rule:nonzero;stroke:#000000;stroke-width:0.40000001;stroke-linecap:square;stroke-linejoin:miter;stroke-miterlimit:4;stroke-dasharray:none;stroke-opacity:1"
         d="m 142.797,35.5 12.652,0 0,11.141 c 0,0 -0.504,3.254 -6.547,3.402 -5.597,0.141 -6.105,-3.402 -6.105,-3.402 l 0,-11.141 z" /></g><g
       transform="matrix(1,0,0,-1,0,110.25925)"
       id="g3425"><path
         inkscape:connector-curvature="0"
         id="path3427"
         style="fill:#ffffff;fill-opacity:1;fill-rule:nonzero;stroke:#000000;stroke-width:0.40000001;stroke-linecap:square;stroke-linejoin:miter;stroke-miterlimit:4;stroke-dasharray:none;stroke-opacity:1"
         d="m 155.449,35.254 c 0,2.098 -2.832,3.797 -6.324,3.797 -3.496,0 -6.328,-1.699 -6.328,-3.797 0,-2.098 2.832,-3.797 6.328,-3.797 3.492,0 6.324,1.699 6.324,3.797 z" /></g><text
       id="text3429"
       style="font-variant:normal;font-weight:normal;font-size:3.5px;font-family:Verdana;-inkscape-font-specification:Verdana;writing-mode:lr-tb;fill:#000000;fill-opacity:1;fill-rule:nonzero;stroke:none"
       transform="scale(1,-1)"
       x="143.0809"
       y="-66.554558"><tspan
         id="tspan3431"
         sodipodi:role="line"
         y="-66.554558"
         x="143.0809 144.9919 146.9939 147.82339 148.65289 150.3539 151.1834 153.1434">Policies</tspan></text>
<g
       transform="matrix(1,0,0,-1,0,110.25925)"
       id="g3451"><path
         inkscape:connector-curvature="0"
         id="path3453"
         style="fill:none;stroke:#000000;stroke-width:0.16;stroke-linecap:square;stroke-linejoin:miter;stroke-miterlimit:10;stroke-dasharray:none;stroke-opacity:1"
         d="m 27.598,12.363 14.48,0 c 1.11,0 2,0.891 2,2 l 0,18.332 c 0,1.11 -0.89,2 -2,2 l -14.48,0 c -1.11,0 -2,-0.89 -2,-2 l 0,-18.332 c 0,-1.109 0.89,-2 2,-2 z" /></g><text
       id="text3455"
       style="font-variant:normal;font-weight:normal;font-size:4.19367123px;font-family:Verdana;-inkscape-font-specification:Verdana;writing-mode:lr-tb;fill:#000000;fill-opacity:1;fill-rule:nonzero;stroke:none"
       transform="scale(1,-1)"
       x="27.861441"
       y="-93.328545"><tspan
         id="tspan3457"
         sodipodi:role="line"
         y="-93.328545"
         x="27.861441 31.010887 33.552254 35.73296 37.385269 38.857246">Host B</tspan></text>
<g
       transform="matrix(1,0,0,-1,0,110.25925)"
       id="g3459"><path
         inkscape:connector-curvature="0"
         id="path3461"
         style="fill:#ffffff;fill-opacity:1;fill-rule:nonzero;stroke:#000000;stroke-width:0.40000001;stroke-linecap:square;stroke-linejoin:miter;stroke-miterlimit:4;stroke-dasharray:none;stroke-opacity:1"
         d="m 35.836,23.703 -2.098,3.633 -4.191,0 -2.098,-3.633 2.098,-3.629 4.191,0 2.098,3.629 z" /></g><g
       transform="matrix(1,0,0,-1,0,110.25925)"
       id="g3463"><path
         inkscape:connector-curvature="0"
         id="path3465"
         style="fill:#ffffff;fill-opacity:1;fill-rule:nonzero;stroke:#000000;stroke-width:0.40000001;stroke-linecap:square;stroke-linejoin:miter;stroke-miterlimit:4;stroke-dasharray:none;stroke-opacity:1"
         d="m 42.539,29.621 -2.098,3.633 -4.195,0 -2.098,-3.633 2.098,-3.629 4.195,0 2.098,3.629 z" /></g><g
       transform="matrix(1,0,0,-1,0,110.25925)"
       id="g3467"><path
         inkscape:connector-curvature="0"
         id="path3469"
         style="fill:none;stroke:#000000;stroke-width:0.16;stroke-linecap:square;stroke-linejoin:miter;stroke-miterlimit:10;stroke-dasharray:none;stroke-opacity:1"
         d="m 60.91,12.363 14.485,0 c 1.109,0 2,0.891 2,2 l 0,18.332 c 0,1.11 -0.891,2 -2,2 l -14.485,0 c -1.105,0 -2,-0.89 -2,-2 l 0,-18.332 c 0,-1.109 0.895,-2 2,-2 z" /></g><text
       id="text3471"
       style="font-variant:normal;font-weight:normal;font-size:4.19367123px;font-family:Verdana;-inkscape-font-specification:Verdana;writing-mode:lr-tb;fill:#000000;fill-opacity:1;fill-rule:nonzero;stroke:none"
       transform="scale(1,-1)"
       x="61.175724"
       y="-93.328545"><tspan
         id="tspan3473"
         sodipodi:role="line"
         y="-93.328545"
         x="61.175724 64.325172 66.866539 69.047249 70.699554 72.171532">Host Z</tspan></text>
<g
       transform="matrix(1,0,0,-1,0,110.25925)"
       id="g3475"><path
         inkscape:connector-curvature="0"
         id="path3477"
         style="fill:#ffffff;fill-opacity:1;fill-rule:nonzero;stroke:#000000;stroke-width:0.40000001;stroke-linecap:square;stroke-linejoin:miter;stroke-miterlimit:4;stroke-dasharray:none;stroke-opacity:1"
         d="m 69.148,23.703 -2.093,3.633 -4.196,0 -2.097,-3.633 2.097,-3.629 4.196,0 2.093,3.629 z" /></g><g
       transform="matrix(1,0,0,-1,0,110.25925)"
       id="g3479"><path
         inkscape:connector-curvature="0"
         id="path3481"
         style="fill:#ffffff;fill-opacity:1;fill-rule:nonzero;stroke:#000000;stroke-width:0.40000001;stroke-linecap:square;stroke-linejoin:miter;stroke-miterlimit:4;stroke-dasharray:none;stroke-opacity:1"
         d="m 75.852,29.621 -2.098,3.633 -4.191,0 -2.098,-3.633 2.098,-3.629 4.191,0 2.098,3.629 z" /></g><g
       transform="matrix(1,0,0,-1,0,110.25925)"
       id="g3483"><path
         inkscape:connector-curvature="0"
         id="path3485"
         style="fill:none;stroke:#000000;stroke-width:0.16;stroke-linecap:square;stroke-linejoin:miter;stroke-miterlimit:10;stroke-dasharray:none;stroke-opacity:1"
         d="m 3.598,12.363 14.48,0 c 1.11,0 2,0.891 2,2 l 0,18.332 c 0,1.11 -0.89,2 -2,2 l -14.48,0 c -1.11,0 -2,-0.89 -2,-2 l 0,-18.332 c 0,-1.109 0.89,-2 2,-2 z" /></g><text
       id="text3487"
       style="font-variant:normal;font-weight:normal;font-size:4.19367123px;font-family:Verdana;-inkscape-font-specification:Verdana;writing-mode:lr-tb;fill:#000000;fill-opacity:1;fill-rule:nonzero;stroke:none"
       transform="scale(1,-1)"
       x="3.770792"
       y="-93.328545"><tspan
         id="tspan3489"
         sodipodi:role="line"
         y="-93.328545"
         x="3.770792 6.920239 9.4616032 11.642312 13.294619 14.766598">Host A</tspan></text>
<g
       transform="matrix(1,0,0,-1,0,110.25925)"
       id="g3491"><path
         inkscape:connector-curvature="0"
         id="path3493"
         style="fill:#ffffff;fill-opacity:1;fill-rule:nonzero;stroke:#000000;stroke-width:0.40000001;stroke-linecap:square;stroke-linejoin:miter;stroke-miterlimit:4;stroke-dasharray:none;stroke-opacity:1"
         d="m 15.031,25.766 -2.097,3.632 -4.192,0 -2.097,-3.632 2.097,-3.633 4.192,0 2.097,3.633 z" /></g><g
       transform="matrix(1,0,0,-1,0,110.25925)"
       id="g3495"><path
         inkscape:connector-curvature="0"
         id="path3497"
         style="fill:none;stroke:#000000;stroke-width:0.16;stroke-linecap:square;stroke-linejoin:miter;stroke-miterlimit:10;stroke-dasharray:0.64, 0.64;stroke-dashoffset:0;stroke-opacity:1"
         d="m 2.078,10.039 74.86,0 c 1.109,0 2,0.895 2,2 l 0,28.859 c 0,1.106 -0.891,2 -2,2 l -74.86,0 c -1.105,0 -2,-0.894 -2,-2 l 0,-28.859 c 0,-1.105 0.895,-2 2,-2 z" /></g><text
       id="text3499"
       style="font-variant:normal;font-weight:normal;font-size:4.19367123px;font-family:Verdana;-inkscape-font-specification:Verdana;writing-mode:lr-tb;fill:#000000;fill-opacity:1;fill-rule:nonzero;stroke:none"
       transform="scale(1,-1)"
       x="49.357849"
       y="-83.842804"><tspan
         id="tspan3501"
         sodipodi:role="line"
         y="-83.842804"
         x="49.357849 50.88015 52.402454">...</tspan><tspan
         id="tspan3503"
         sodipodi:role="line"
         y="-69.747765"
         x="6.2212057 9.7522764 10.901343 13.082053 14.868556 17.40992 19.59063 22.085863 23.872368 26.350826 27.499893 29.680601 32.175838 34.079762 36.952427 39.468632 41.649338 44.144573 46.757233 48.22921 51.093487 53.706142 56.318802 57.467865 58.600159 60.780865 63.29707 64.949379 66.098442 68.639809">Microservice-Based Application</tspan></text>
<g
       transform="matrix(1,0,0,-1,0,110.25925)"
       id="g3505"><path
         inkscape:connector-curvature="0"
         id="path3507"
         style="fill:none;stroke:#000000;stroke-width:0.16;stroke-linecap:square;stroke-linejoin:miter;stroke-miterlimit:10;stroke-dasharray:0.64, 0.64;stroke-dashoffset:0;stroke-opacity:1"
         d="m 2.078,10.039 74.86,0 c 1.109,0 2,0.895 2,2 l 0,28.859 c 0,1.106 -0.891,2 -2,2 l -74.86,0 c -1.105,0 -2,-0.894 -2,-2 l 0,-28.859 c 0,-1.105 0.895,-2 2,-2 z" /></g><g
       transform="matrix(1,0,0,-1,0,110.25925)"
       id="g3509"><path
         inkscape:connector-curvature="0"
         id="path3511"
         style="fill:none;stroke:#000000;stroke-width:0.16;stroke-linecap:square;stroke-linejoin:miter;stroke-miterlimit:10;stroke-dasharray:none;stroke-opacity:1"
         d="m 1.121,51.574 23.23,0 0,11.191 -23.23,0 0,-11.191 z" /></g><text
       id="text3513"
       style="font-variant:normal;font-weight:normal;font-size:4.19367123px;font-family:Verdana;-inkscape-font-specification:Verdana;writing-mode:lr-tb;fill:#000000;fill-opacity:1;fill-rule:nonzero;stroke:none"
       transform="scale(1,-1)"
       x="2.764576"
       y="-51.597317"><tspan
         id="tspan3515"
         sodipodi:role="line"
         y="-51.597317"
         x="2.764576 5.6288533 7.8095622 9.4618692 12.112268 14.628471 16.280779 18.834723 20.621227">Actuators</tspan></text>
<g
       transform="matrix(1,0,0,-1,0,110.25925)"
       id="g3517"><path
         inkscape:connector-curvature="0"
         id="path3519"
         style="fill:none;stroke:#000000;stroke-width:0.16;stroke-linecap:square;stroke-linejoin:miter;stroke-miterlimit:10;stroke-dasharray:none;stroke-opacity:1"
         d="m 29.793,51.574 23.23,0 0,11.191 -23.23,0 0,-11.191 z" /></g><text
       id="text3521"
       style="font-variant:normal;font-weight:normal;font-size:4.19367123px;font-family:Verdana;-inkscape-font-specification:Verdana;writing-mode:lr-tb;fill:#000000;fill-opacity:1;fill-rule:nonzero;stroke:none"
       transform="scale(1,-1)"
       x="32.992905"
       y="-51.597317"><tspan
         id="tspan3523"
         sodipodi:role="line"
         y="-51.597317"
         x="32.992905 35.857182 38.352417 41.002815 43.183525 45.724888 47.511395">Sensors</tspan></text>
<g
       transform="matrix(1,0,0,-1,0,110.25925)"
       id="g3525"><path
         inkscape:connector-curvature="0"
         id="path3527"
         style="fill:none;stroke:#000000;stroke-width:0.23999999;stroke-linecap:butt;stroke-linejoin:miter;stroke-miterlimit:4;stroke-dasharray:none;stroke-opacity:1"
         d="m 41.406,42.875 0,8.387" /></g><g
       transform="matrix(0,1,1,0,0,110.25925)"
       id="g3529"><path
         inkscape:connector-curvature="0"
         id="path3531"
         style="fill:#000000;fill-opacity:1;fill-rule:evenodd;stroke:#000000;stroke-width:0.09;stroke-linecap:butt;stroke-linejoin:round;stroke-miterlimit:4;stroke-dasharray:none;stroke-opacity:1"
         d="m -50.008,41.988 -1.574,-0.578 1.574,-0.578 c -0.25,0.34 -0.25,0.809 0,1.156 z" /></g><g
       transform="matrix(1,0,0,-1,0,110.25925)"
       id="g3533"><path
         inkscape:connector-curvature="0"
         id="path3535"
         style="fill:none;stroke:#000000;stroke-width:0.16;stroke-linecap:square;stroke-linejoin:miter;stroke-miterlimit:10;stroke-dasharray:none;stroke-opacity:1"
         d="m 40.113,71.988 29.699,0 0,14.305 -29.699,0 0,-14.305 z" /></g><text
       id="text3537"
       style="font-variant:normal;font-weight:normal;font-size:4.19367123px;font-family:Verdana;-inkscape-font-specification:Verdana;writing-mode:lr-tb;fill:#000000;fill-opacity:1;fill-rule:nonzero;stroke:none"
       transform="scale(1,-1)"
       x="45.620209"
       y="-29.556641"><tspan
         id="tspan3539"
         sodipodi:role="line"
         y="-29.556641"
         x="45.620209 48.54739 51.088757 52.23782 53.370113 55.865345 58.046055 59.69836 62.239727">Collector</tspan></text>
<g
       transform="matrix(1,0,0,-1,0,110.25925)"
       id="g3541"><path
         inkscape:connector-curvature="0"
         id="path3543"
         style="fill:none;stroke:#000000;stroke-width:0.23999999;stroke-linecap:butt;stroke-linejoin:miter;stroke-miterlimit:4;stroke-dasharray:none;stroke-opacity:1"
         d="m 12.738,51.578 0,-8.39" /></g><g
       transform="matrix(0,-1,-1,0,0,110.25925)"
       id="g3545"><path
         inkscape:connector-curvature="0"
         id="path3547"
         style="fill:#000000;fill-opacity:1;fill-rule:evenodd;stroke:#000000;stroke-width:0.09;stroke-linecap:butt;stroke-linejoin:round;stroke-miterlimit:4;stroke-dasharray:none;stroke-opacity:1"
         d="m 44.445,-12.16 -1.574,-0.578 1.574,-0.578 c -0.254,0.339 -0.25,0.808 0,1.156 z" /></g><text
       id="text3549"
       style="font-variant:normal;font-weight:normal;font-size:4.19367123px;font-family:Verdana;-inkscape-font-specification:Verdana;writing-mode:lr-tb;fill:#000000;fill-opacity:1;fill-rule:nonzero;stroke:none"
       transform="scale(1,-1)"
       x="97.793098"
       y="-37.146046"><tspan
         id="tspan3551"
         sodipodi:role="line"
         y="-37.146046"
         x="97.793098 99.315399 100.83771">...</tspan></text>
<g
       transform="matrix(1,0,0,-1,0,110.25925)"
       id="g3553"><path
         inkscape:connector-curvature="0"
         id="path3555"
         style="fill:none;stroke:#000000;stroke-width:0.23999999;stroke-linecap:butt;stroke-linejoin:miter;stroke-miterlimit:4;stroke-dasharray:none;stroke-opacity:1"
         d="M 69.781,76.906 C 80.043,66.34 82.453,64.836 93.602,61.895" /></g><g
       transform="matrix(-1,-0.263597,-0.263597,1,0,110.25925)"
       id="g3557"><path
         inkscape:connector-curvature="0"
         id="path3559"
         style="fill:#000000;fill-opacity:1;fill-rule:evenodd;stroke:#000000;stroke-width:0.0870273;stroke-linecap:butt;stroke-linejoin:round;stroke-miterlimit:4;stroke-dasharray:none;stroke-opacity:1"
         d="m -71.053,-80.386 -1.521,-0.557 1.523,-0.559 c -0.244,0.33 -0.242,0.784 -0.002,1.116 z" /></g><g
       transform="matrix(1,0,0,-1,0,110.25925)"
       id="g3561"><path
         inkscape:connector-curvature="0"
         id="path3563"
         style="fill:none;stroke:#000000;stroke-width:0.23999999;stroke-linecap:butt;stroke-linejoin:miter;stroke-miterlimit:4;stroke-dasharray:none;stroke-opacity:1"
         d="m 69.824,81.25 c 15.93,4.785 12.473,4.078 24.492,2.434" /></g><g
       transform="matrix(-1,-0.136855,-0.136855,1,0,110.25925)"
       id="g3565"><path
         inkscape:connector-curvature="0"
         id="path3567"
         style="fill:#000000;fill-opacity:1;fill-rule:evenodd;stroke:#000000;stroke-width:0.0891688;stroke-linecap:butt;stroke-linejoin:round;stroke-miterlimit:4;stroke-dasharray:none;stroke-opacity:1"
         d="m -80.099,-94.239 -1.558,-0.573 1.558,-0.572 c -0.249,0.337 -0.246,0.799 0,1.145 z" /></g><g
       transform="matrix(1,0,0,-1,0,110.25925)"
       id="g3569"><path
         inkscape:connector-curvature="0"
         id="path3571"
         style="fill:none;stroke:#000000;stroke-width:0.23999999;stroke-linecap:butt;stroke-linejoin:miter;stroke-miterlimit:4;stroke-dasharray:none;stroke-opacity:1"
         d="m 105.391,61.039 c 11.554,-3.496 19.808,-2.098 26.648,-0.855" /></g><g
       transform="matrix(-1,0.181556,0.181556,1,0,110.25925)"
       id="g3573"><path
         inkscape:connector-curvature="0"
         id="path3575"
         style="fill:#000000;fill-opacity:1;fill-rule:evenodd;stroke:#000000;stroke-width:0.0885524;stroke-linecap:butt;stroke-linejoin:round;stroke-miterlimit:4;stroke-dasharray:none;stroke-opacity:1"
         d="m -137.167,-34.483 -1.549,-0.571 1.55,-0.566 c -0.248,0.334 -0.247,0.795 -0.001,1.137 z" /></g><g
       transform="matrix(1,0,0,-1,0,110.25925)"
       id="g3577"><path
         inkscape:connector-curvature="0"
         id="path3579"
         style="fill:none;stroke:#000000;stroke-width:0.23999999;stroke-linecap:butt;stroke-linejoin:miter;stroke-miterlimit:4;stroke-dasharray:none;stroke-opacity:1"
         d="m 105.602,82.941 c 13.554,-4.164 17.07,-16.605 25.867,-20.187" /></g><g
       transform="matrix(-1,-0.407461,-0.407461,1,0,110.25925)"
       id="g3581"><path
         inkscape:connector-curvature="0"
         id="path3583"
         style="fill:#000000;fill-opacity:1;fill-rule:evenodd;stroke:#000000;stroke-width:0.0833468;stroke-linecap:butt;stroke-linejoin:round;stroke-miterlimit:4;stroke-dasharray:none;stroke-opacity:1"
         d="m -89.658,-99.22 -1.456,-0.538 1.456,-0.536 c -0.23,0.317 -0.231,0.75 0,1.074 z" /></g><g
       transform="matrix(1,0,0,-1,0,110.25925)"
       id="g3585"><path
         inkscape:connector-curvature="0"
         id="path3587"
         style="fill:#ffffff;fill-opacity:1;fill-rule:evenodd;stroke:#000000;stroke-width:0.08;stroke-linecap:butt;stroke-linejoin:miter;stroke-miterlimit:4;stroke-dasharray:none;stroke-opacity:1"
         d="m 112.602,76.262 4.703,0 0,3.137 -4.703,0 0,-3.137 z" /></g><g
       transform="matrix(1,0,0,-1,0,110.25925)"
       id="g3589"><path
         inkscape:connector-curvature="0"
         id="path3591"
         style="fill:none;stroke:#000000;stroke-width:0.08;stroke-linecap:butt;stroke-linejoin:miter;stroke-miterlimit:4;stroke-dasharray:none;stroke-opacity:1"
         d="m 112.602,79.398 2.351,-1.566 2.352,1.566" /></g><g
       transform="matrix(1,0,0,-1,0,110.25925)"
       id="g3593"><path
         inkscape:connector-curvature="0"
         id="path3595"
         style="fill:#ffffff;fill-opacity:1;fill-rule:evenodd;stroke:#000000;stroke-width:0.08;stroke-linecap:butt;stroke-linejoin:bevel;stroke-miterlimit:4;stroke-dasharray:none;stroke-opacity:1"
         d="m 112.629,76.301 2.351,2.351 2.352,-2.351 -4.703,0 z" /></g><g
       transform="matrix(1,0,0,-1,0,110.25925)"
       id="g3597"><path
         inkscape:connector-curvature="0"
         id="path3599"
         style="fill:#ffffff;fill-opacity:1;fill-rule:evenodd;stroke:#000000;stroke-width:0.08;stroke-linecap:butt;stroke-linejoin:miter;stroke-miterlimit:4;stroke-dasharray:none;stroke-opacity:1"
         d="m 112.328,57.227 4.703,0 0,3.137 -4.703,0 0,-3.137 z" /></g><g
       transform="matrix(1,0,0,-1,0,110.25925)"
       id="g3601"><path
         inkscape:connector-curvature="0"
         id="path3603"
         style="fill:none;stroke:#000000;stroke-width:0.08;stroke-linecap:butt;stroke-linejoin:miter;stroke-miterlimit:4;stroke-dasharray:none;stroke-opacity:1"
         d="m 112.328,60.363 2.352,-1.566 2.351,1.566" /></g><g
       transform="matrix(1,0,0,-1,0,110.25925)"
       id="g3605"><path
         inkscape:connector-curvature="0"
         id="path3607"
         style="fill:#ffffff;fill-opacity:1;fill-rule:evenodd;stroke:#000000;stroke-width:0.08;stroke-linecap:butt;stroke-linejoin:bevel;stroke-miterlimit:4;stroke-dasharray:none;stroke-opacity:1"
         d="m 112.355,57.266 2.352,2.355 2.352,-2.355 -4.704,0 z" /></g><g
       transform="matrix(1,0,0,-1,0,110.25925)"
       id="g3609"><path
         inkscape:connector-curvature="0"
         id="path3611"
         style="fill:#ffffff;fill-opacity:1;fill-rule:evenodd;stroke:#000000;stroke-width:0.08;stroke-linecap:butt;stroke-linejoin:miter;stroke-miterlimit:4;stroke-dasharray:none;stroke-opacity:1"
         d="m 135.68,78.691 4.707,0 0,3.141 -4.707,0 0,-3.141 z" /></g><g
       transform="matrix(1,0,0,-1,0,110.25925)"
       id="g3613"><path
         inkscape:connector-curvature="0"
         id="path3615"
         style="fill:none;stroke:#000000;stroke-width:0.08;stroke-linecap:butt;stroke-linejoin:miter;stroke-miterlimit:4;stroke-dasharray:none;stroke-opacity:1"
         d="m 135.68,81.832 2.355,-1.57 2.352,1.57" /></g><g
       transform="matrix(1,0,0,-1,0,110.25925)"
       id="g3617"><path
         inkscape:connector-curvature="0"
         id="path3619"
         style="fill:#ffffff;fill-opacity:1;fill-rule:evenodd;stroke:#000000;stroke-width:0.08;stroke-linecap:butt;stroke-linejoin:bevel;stroke-miterlimit:4;stroke-dasharray:none;stroke-opacity:1"
         d="m 135.707,78.734 2.356,2.352 2.351,-2.352 -4.707,0 z" /></g><g
       transform="matrix(1,0,0,-1,0,110.25925)"
       id="g3621"><path
         inkscape:connector-curvature="0"
         id="path3623"
         style="fill:#ffffff;fill-opacity:1;fill-rule:evenodd;stroke:#000000;stroke-width:0.08;stroke-linecap:butt;stroke-linejoin:miter;stroke-miterlimit:4;stroke-dasharray:none;stroke-opacity:1"
         d="m 39.289,102.723 4.703,0 0,3.137 -4.703,0 0,-3.137 z" /></g><g
       transform="matrix(1,0,0,-1,0,110.25925)"
       id="g3625"><path
         inkscape:connector-curvature="0"
         id="path3627"
         style="fill:none;stroke:#000000;stroke-width:0.08;stroke-linecap:butt;stroke-linejoin:miter;stroke-miterlimit:4;stroke-dasharray:none;stroke-opacity:1"
         d="m 39.289,105.859 2.352,-1.57 2.351,1.57" /></g><g
       transform="matrix(1,0,0,-1,0,110.25925)"
       id="g3629"><path
         inkscape:connector-curvature="0"
         id="path3631"
         style="fill:#ffffff;fill-opacity:1;fill-rule:evenodd;stroke:#000000;stroke-width:0.08;stroke-linecap:butt;stroke-linejoin:bevel;stroke-miterlimit:4;stroke-dasharray:none;stroke-opacity:1"
         d="m 39.316,102.762 2.352,2.351 2.355,-2.351 -4.707,0 z" /></g><g
       transform="matrix(1,0,0,-1,0,110.25925)"
       id="g3633"><path
         inkscape:connector-curvature="0"
         id="path3635"
         style="fill:#ffffff;fill-opacity:1;fill-rule:evenodd;stroke:#000000;stroke-width:0.08;stroke-linecap:butt;stroke-linejoin:miter;stroke-miterlimit:4;stroke-dasharray:none;stroke-opacity:1"
         d="m 79.145,65.578 4.707,0 0,3.137 -4.707,0 0,-3.137 z" /></g><g
       transform="matrix(1,0,0,-1,0,110.25925)"
       id="g3637"><path
         inkscape:connector-curvature="0"
         id="path3639"
         style="fill:none;stroke:#000000;stroke-width:0.08;stroke-linecap:butt;stroke-linejoin:miter;stroke-miterlimit:4;stroke-dasharray:none;stroke-opacity:1"
         d="m 79.145,68.715 2.351,-1.567 2.356,1.567" /></g><g
       transform="matrix(1,0,0,-1,0,110.25925)"
       id="g3641"><path
         inkscape:connector-curvature="0"
         id="path3643"
         style="fill:#ffffff;fill-opacity:1;fill-rule:evenodd;stroke:#000000;stroke-width:0.08;stroke-linecap:butt;stroke-linejoin:bevel;stroke-miterlimit:4;stroke-dasharray:none;stroke-opacity:1"
         d="m 79.172,65.617 2.355,2.356 2.352,-2.356 -4.707,0 z" /></g><g
       transform="matrix(1,0,0,-1,0,110.25925)"
       id="g3645"><path
         inkscape:connector-curvature="0"
         id="path3647"
         style="fill:#ffffff;fill-opacity:1;fill-rule:evenodd;stroke:#000000;stroke-width:0.08;stroke-linecap:butt;stroke-linejoin:miter;stroke-miterlimit:4;stroke-dasharray:none;stroke-opacity:1"
         d="m 80.074,83.336 4.707,0 0,3.137 -4.707,0 0,-3.137 z" /></g><g
       transform="matrix(1,0,0,-1,0,110.25925)"
       id="g3649"><path
         inkscape:connector-curvature="0"
         id="path3651"
         style="fill:none;stroke:#000000;stroke-width:0.08;stroke-linecap:butt;stroke-linejoin:miter;stroke-miterlimit:4;stroke-dasharray:none;stroke-opacity:1"
         d="m 80.074,86.473 2.352,-1.567 2.355,1.567" /></g><g
       transform="matrix(1,0,0,-1,0,110.25925)"
       id="g3653"><path
         inkscape:connector-curvature="0"
         id="path3655"
         style="fill:#ffffff;fill-opacity:1;fill-rule:evenodd;stroke:#000000;stroke-width:0.08;stroke-linecap:butt;stroke-linejoin:bevel;stroke-miterlimit:4;stroke-dasharray:none;stroke-opacity:1"
         d="m 80.102,83.375 2.351,2.352 2.356,-2.352 -4.707,0 z" /></g><g
       transform="matrix(1,0,0,-1,0,110.25925)"
       id="g3657"><path
         inkscape:connector-curvature="0"
         id="path3659"
         style="fill:none;stroke:#000000;stroke-width:0.16;stroke-linecap:square;stroke-linejoin:miter;stroke-miterlimit:10;stroke-dasharray:none;stroke-opacity:1"
         d="m 133.828,54.273 29.695,0 0,14.305 -29.695,0 0,-14.305 z" /></g><text
       id="text3661"
       style="font-variant:normal;font-weight:normal;font-size:4.19367123px;font-family:Verdana;-inkscape-font-specification:Verdana;writing-mode:lr-tb;fill:#000000;fill-opacity:1;fill-rule:nonzero;stroke:none"
       transform="scale(1,-1)"
       x="140.5703"
       y="-47.27092"><tspan
         id="tspan3663"
         sodipodi:role="line"
         y="-47.27092"
         x="140.5703 143.09908 144.24814 146.76434 149.41475 152.06514 154.56038">Planner</tspan></text>
<g
       transform="matrix(1,0,0,-1,0,110.25925)"
       id="g3665"><path
         inkscape:connector-curvature="0"
         id="path3667"
         style="fill:none;stroke:#000000;stroke-width:0.16;stroke-linecap:square;stroke-linejoin:miter;stroke-miterlimit:10;stroke-dasharray:none;stroke-opacity:1"
         d="m 13.102,0.078 19.09,0 0,5.688 -19.09,0 0,-5.688 z" /></g><text
       id="text3669"
       style="font-variant:normal;font-weight:normal;font-size:4.19367123px;font-family:Verdana;-inkscape-font-specification:Verdana;writing-mode:lr-tb;fill:#000000;fill-opacity:1;fill-rule:nonzero;stroke:none"
       transform="scale(1,-1)"
       x="14.67452"
       y="-105.77127"><tspan
         id="tspan3671"
         sodipodi:role="line"
         y="-105.77127"
         x="14.67452 17.601702 18.750769 19.878866 22.3741 25.0245 26.676805 28.148785">Client 1</tspan><tspan
         id="tspan3673"
         sodipodi:role="line"
         y="-107.04494"
         x="35.88472 37.407021 38.929325">...</tspan></text>
<g
       transform="matrix(1,0,0,-1,0,110.25925)"
       id="g3675"><path
         inkscape:connector-curvature="0"
         id="path3677"
         style="fill:none;stroke:#000000;stroke-width:0.16;stroke-linecap:square;stroke-linejoin:miter;stroke-miterlimit:10;stroke-dasharray:none;stroke-opacity:1"
         d="m 44.148,0.078 19.09,0 0,5.688 -19.09,0 0,-5.688 z" /></g><text
       id="text3679"
       style="font-variant:normal;font-weight:normal;font-size:4.19367123px;font-family:Verdana;-inkscape-font-specification:Verdana;writing-mode:lr-tb;fill:#000000;fill-opacity:1;fill-rule:nonzero;stroke:none"
       transform="scale(1,-1)"
       x="45.686207"
       y="-105.77127"><tspan
         id="tspan3681"
         sodipodi:role="line"
         y="-105.77127"
         x="45.686207 48.613388 49.762455 50.890553 53.385784 56.036186 57.688492 59.160469">Client n</tspan></text>
<g
       transform="matrix(1,0,0,-1,0,110.25925)"
       id="g3683"><path
         inkscape:connector-curvature="0"
         id="path3685"
         style="fill:none;stroke:#000000;stroke-width:0.23999999;stroke-linecap:butt;stroke-linejoin:miter;stroke-miterlimit:4;stroke-dasharray:none;stroke-opacity:1"
         d="m 22.648,9.578 0,-3.238" /></g><g
       transform="matrix(0,1,1,0,0,110.25925)"
       id="g3687"><path
         inkscape:connector-curvature="0"
         id="path3689"
         style="fill:#000000;fill-opacity:1;fill-rule:evenodd;stroke:#000000;stroke-width:0.09;stroke-linecap:butt;stroke-linejoin:round;stroke-miterlimit:4;stroke-dasharray:none;stroke-opacity:1"
         d="M -8.32,23.227 -9.895,22.648 -8.32,22.07 c -0.25,0.344 -0.25,0.809 0,1.157 z" /></g><g
       transform="matrix(0,-1,-1,0,0,110.25925)"
       id="g3691"><path
         inkscape:connector-curvature="0"
         id="path3693"
         style="fill:#000000;fill-opacity:1;fill-rule:evenodd;stroke:#000000;stroke-width:0.09;stroke-linecap:butt;stroke-linejoin:round;stroke-miterlimit:4;stroke-dasharray:none;stroke-opacity:1"
         d="m 7.598,-22.066 -1.575,-0.579 1.575,-0.578 c -0.254,0.34 -0.25,0.809 0,1.157 z" /></g><g
       transform="matrix(1,0,0,-1,0,110.25925)"
       id="g3695"><path
         inkscape:connector-curvature="0"
         id="path3697"
         style="fill:none;stroke:#000000;stroke-width:0.23999999;stroke-linecap:butt;stroke-linejoin:miter;stroke-miterlimit:4;stroke-dasharray:none;stroke-opacity:1"
         d="m 53.695,9.578 0,-3.238" /></g><g
       transform="matrix(0,1,1,0,0,110.25925)"
       id="g3699"><path
         inkscape:connector-curvature="0"
         id="path3701"
         style="fill:#000000;fill-opacity:1;fill-rule:evenodd;stroke:#000000;stroke-width:0.09;stroke-linecap:butt;stroke-linejoin:round;stroke-miterlimit:4;stroke-dasharray:none;stroke-opacity:1"
         d="m -8.32,54.277 -1.575,-0.582 1.575,-0.578 c -0.25,0.344 -0.25,0.809 0,1.16 z" /></g><g
       transform="matrix(0,-1,-1,0,0,110.25925)"
       id="g3703"><path
         inkscape:connector-curvature="0"
         id="path3705"
         style="fill:#000000;fill-opacity:1;fill-rule:evenodd;stroke:#000000;stroke-width:0.09;stroke-linecap:butt;stroke-linejoin:round;stroke-miterlimit:4;stroke-dasharray:none;stroke-opacity:1"
         d="m 7.598,-53.113 -1.575,-0.578 1.575,-0.579 c -0.254,0.34 -0.25,0.809 0,1.157 z" /></g><g
       transform="matrix(1,0,0,-1,0,110.25925)"
       id="g3707"><path
         inkscape:connector-curvature="0"
         id="path3709"
         style="fill:none;stroke:#000000;stroke-width:0.23999999;stroke-linecap:butt;stroke-linejoin:miter;stroke-miterlimit:4;stroke-dasharray:none;stroke-opacity:1"
         d="m 45.234,62.66 0,8.387" /></g><g
       transform="matrix(0,1,1,0,0,110.25925)"
       id="g3711"><path
         inkscape:connector-curvature="0"
         id="path3713"
         style="fill:#000000;fill-opacity:1;fill-rule:evenodd;stroke:#000000;stroke-width:0.09;stroke-linecap:butt;stroke-linejoin:round;stroke-miterlimit:4;stroke-dasharray:none;stroke-opacity:1"
         d="m -69.793,45.812 -1.574,-0.578 1.574,-0.578 c -0.25,0.344 -0.25,0.809 0,1.156 z" /></g><g
       transform="matrix(1,0,0,-1,0,110.25925)"
       id="g3715"><path
         inkscape:connector-curvature="0"
         id="path3717"
         style="fill:#ffffff;fill-opacity:1;fill-rule:evenodd;stroke:#000000;stroke-width:0.08;stroke-linecap:butt;stroke-linejoin:miter;stroke-miterlimit:4;stroke-dasharray:none;stroke-opacity:1"
         d="m 42.797,64.945 4.703,0 0,3.137 -4.703,0 0,-3.137 z" /></g><g
       transform="matrix(1,0,0,-1,0,110.25925)"
       id="g3719"><path
         inkscape:connector-curvature="0"
         id="path3721"
         style="fill:none;stroke:#000000;stroke-width:0.08;stroke-linecap:butt;stroke-linejoin:miter;stroke-miterlimit:4;stroke-dasharray:none;stroke-opacity:1"
         d="m 42.797,68.082 2.351,-1.57 2.352,1.57" /></g><g
       transform="matrix(1,0,0,-1,0,110.25925)"
       id="g3723"><path
         inkscape:connector-curvature="0"
         id="path3725"
         style="fill:#ffffff;fill-opacity:1;fill-rule:evenodd;stroke:#000000;stroke-width:0.08;stroke-linecap:butt;stroke-linejoin:bevel;stroke-miterlimit:4;stroke-dasharray:none;stroke-opacity:1"
         d="m 42.824,64.984 2.352,2.352 2.355,-2.352 -4.707,0 z" /></g><g
       transform="matrix(1,0,0,-1,0,110.25925)"
       id="g3727"><path
         inkscape:connector-curvature="0"
         id="path3729"
         style="fill:none;stroke:#000000;stroke-width:0.16;stroke-linecap:square;stroke-linejoin:miter;stroke-miterlimit:10;stroke-dasharray:none;stroke-opacity:1"
         d="m 133.828,95.875 29.695,0 0,14.305 -29.695,0 0,-14.305 z" /></g><text
       id="text3731"
       style="font-variant:normal;font-weight:normal;font-size:4.19367123px;font-family:Verdana;-inkscape-font-specification:Verdana;writing-mode:lr-tb;fill:#000000;fill-opacity:1;fill-rule:nonzero;stroke:none"
       transform="scale(1,-1)"
       x="137.43835"
       y="-8.6933126"><tspan
         id="tspan3733"
         sodipodi:role="line"
         y="-8.6933126"
         x="137.43835 140.30264 142.9153 145.4315 148.04416 149.69646 152.21266 153.87755 155.01404 157.5554">Adaptation</tspan><tspan
         id="tspan3735"
         sodipodi:role="line"
         y="-3.4512241"
         x="141.72623 144.37663 147.02702 149.63968 150.78874 153.43915">Engine</tspan></text>
<g
       transform="matrix(1,0,0,-1,0,110.25925)"
       id="g3737"><path
         inkscape:connector-curvature="0"
         id="path3739"
         style="fill:none;stroke:#000000;stroke-width:0.260259;stroke-linecap:square;stroke-linejoin:miter;stroke-miterlimit:4;stroke-dasharray:none;stroke-opacity:1"
         d="m 105.535,84.395 c 0,3.011 -2.441,5.457 -5.457,5.457 -3.012,0 -5.457,-2.446 -5.457,-5.457 0,-3.016 2.445,-5.457 5.457,-5.457 3.016,0 5.457,2.441 5.457,5.457 z" /></g><text
       y="-60.529003"
       x="120.59303"
       transform="scale(1,-1)"
       style="font-variant:normal;font-weight:normal;font-size:4.19367123px;font-family:Verdana;-inkscape-font-specification:Verdana;writing-mode:lr-tb;fill:#000000;fill-opacity:1;fill-rule:nonzero;stroke:none"
       id="text3936"><tspan
         sodipodi:role="line"
         id="tspan3940"
         x="120.59303"
         y="-60.529003"
         style="text-align:center;text-anchor:middle">Change</tspan><tspan
         sodipodi:role="line"
         x="120.59303"
         y="-55.286915"
         id="tspan3972"
         style="text-align:center;text-anchor:middle">Event</tspan></text>
<text
       id="text3942"
       style="font-variant:normal;font-weight:normal;font-size:4.19367123px;font-family:Verdana;-inkscape-font-specification:Verdana;writing-mode:lr-tb;fill:#000000;fill-opacity:1;fill-rule:nonzero;stroke:none"
       transform="scale(1,-1)"
       x="66.715904"
       y="-48.411285"><tspan
         id="tspan3946"
         sodipodi:role="line"
         x="66.715904"
         y="-48.411285">Symptom</tspan></text>
<text
       y="-13.497856"
       x="54.913254"
       transform="scale(1,-1)"
       style="font-variant:normal;font-weight:normal;font-size:4.19367123px;font-family:Verdana;-inkscape-font-specification:Verdana;writing-mode:lr-tb;fill:#000000;fill-opacity:1;fill-rule:nonzero;stroke:none"
       id="text3948"><tspan
         sodipodi:role="line"
         id="tspan3952"
         x="46.559696"
         y="-13.497856"
         style="text-anchor:middle;text-align:center">Change</tspan><tspan
         sodipodi:role="line"
         x="46.559696"
         y="-8.2557669"
         id="tspan3980"
         style="text-anchor:middle;text-align:center">Request</tspan></text>
<text
       id="text3954"
       style="font-variant:normal;font-weight:normal;font-size:4.19367123px;font-family:Verdana;-inkscape-font-specification:Verdana;writing-mode:lr-tb;fill:#000000;fill-opacity:1;fill-rule:nonzero;stroke:none"
       transform="scale(1,-1)"
       x="128.99146"
       y="-23.455982"><tspan
         id="tspan3958"
         sodipodi:role="line"
         x="128.99146"
         y="-23.455982"
         style="text-align:center;text-anchor:middle">Change</tspan><tspan
         sodipodi:role="line"
         x="128.99146"
         y="-18.213894"
         id="tspan3976"
         style="text-align:center;text-anchor:middle">Plan</tspan></text>
<text
       y="-41.812527"
       x="48.959248"
       transform="scale(1,-1)"
       style="font-variant:normal;font-weight:normal;font-size:4.19367123px;font-family:Verdana;-inkscape-font-specification:Verdana;writing-mode:lr-tb;fill:#000000;fill-opacity:1;fill-rule:nonzero;stroke:none"
       id="text3960"><tspan
         sodipodi:role="line"
         id="tspan3964"
         x="48.959248"
         y="-41.812527">Event</tspan></text>
</g></svg>